<?xml version="1.0" encoding="UTF-8"?>
<svg version="1.1" xmlns="http://www.w3.org/2000/svg" width="847" height="203">
<path d="M0 0 C1.77539407 0.00306469 3.55079057 0.0049354 5.32618713 0.00567627 C9.03371499 0.01025863 12.74102316 0.02460169 16.44848633 0.046875 C21.17329519 0.0751344 25.89793167 0.08608764 30.62281704 0.0905571 C35.16523299 0.09574228 39.70760691 0.11025597 44.25 0.125 C45.52866345 0.12782108 45.52866345 0.12782108 46.83315849 0.13069916 C55.83459913 0.15635615 64.73962394 0.25055752 73.69140625 1.328125 C73.03754715 9.61034021 68.48379275 17.5357385 62.69140625 23.328125 C52.37351271 31.38836045 43.48001128 32.80887516 30.62890625 33.015625 C29.20700952 33.04847039 27.78513413 33.08225167 26.36328125 33.11694336 C14.4725904 33.38857869 2.58472422 33.40637051 -9.30859375 33.328125 C-9.30859375 40.258125 -9.30859375 47.188125 -9.30859375 54.328125 C-6.71407349 54.34214355 -6.71407349 54.34214355 -4.06713867 54.35644531 C1.68857601 54.39216351 7.44397087 54.44608107 13.19940662 54.51202774 C16.68430603 54.55130769 20.16896015 54.58359019 23.65405273 54.59912109 C27.67341388 54.61735494 31.69186205 54.66738961 35.7109375 54.71875 C36.94471634 54.71997864 38.17849518 54.72120728 39.44966125 54.72247314 C52.96998422 54.9483319 63.49636129 59.46897821 73.44140625 68.578125 C79.54306635 75.00615297 81.70376256 81.74940599 82.69140625 90.328125 C70.81648564 90.50060911 58.94148657 90.66701307 47.06640625 90.828125 C45.75364904 90.84594088 45.75364904 90.84594088 44.41437149 90.86411667 C16.17099176 91.24549859 -12.06247561 91.43610141 -40.30859375 91.328125 C-40.42471613 81.8179921 -40.51342423 72.30810524 -40.56765461 62.79741669 C-40.59368965 58.38063927 -40.62897501 53.96434879 -40.68579102 49.54785156 C-40.74033009 45.28138988 -40.77006008 41.01539498 -40.78297997 36.74861145 C-40.79218079 35.12515419 -40.81014801 33.50172095 -40.83724403 31.87846375 C-41.09977948 15.49095771 -41.09977948 15.49095771 -35.30859375 9.328125 C-34.8062471 8.77209595 -34.30390045 8.21606689 -33.78633118 7.64318848 C-24.64189542 -1.29436566 -11.87738699 -0.09013938 0 0 Z " fill="#037AB0" transform="translate(124.30859375,40.671875)"/>
<path d="M0 0 C9.9 0 19.8 0 30 0 C30.0093457 3.44179688 30.01869141 6.88359375 30.02832031 10.4296875 C30.06210747 21.80920071 30.11746608 33.18855231 30.18390274 44.56791687 C30.22365276 51.4663429 30.25606562 58.36465551 30.27099609 65.26318359 C30.28542932 71.92232079 30.32058645 78.58105578 30.36830902 85.24005127 C30.38313105 87.77887921 30.39104148 90.31775735 30.39188385 92.85662842 C30.39425263 96.4165177 30.42132787 99.9754348 30.45410156 103.53515625 C30.4490712 104.58172897 30.44404083 105.6283017 30.43885803 106.70658875 C30.5276745 112.95392569 31.35785835 117.80944376 35 123 C39.86218532 127.51488637 43.00058295 128.14652326 49.44384766 128.1418457 C50.21157501 128.14532013 50.97930237 128.14879456 51.77029419 128.15237427 C53.44105935 128.15973598 55.11183432 128.16507915 56.78261185 128.16866493 C59.43143894 128.17582824 62.08008056 128.19149576 64.72885132 128.21000671 C72.26142766 128.26246819 79.79390524 128.31041028 87.32666016 128.32592773 C91.93275487 128.33603884 96.53838701 128.3654473 101.14429855 128.40724754 C102.89603543 128.41952319 104.64783778 128.4246851 106.39961624 128.42244911 C108.86016966 128.42008233 111.31940993 128.44236682 113.77978516 128.4699707 C114.49593994 128.46336929 115.21209473 128.45676788 115.94995117 128.44996643 C122.12164634 128.56291726 127.58463125 130.50671613 131.9375 135 C133.86151554 138.62167631 134.12242131 141.92290474 134.09765625 145.984375 C134.09443359 146.91894531 134.09121094 147.85351562 134.08789062 148.81640625 C134.07951172 149.78449219 134.07113281 150.75257813 134.0625 151.75 C134.05798828 152.73355469 134.05347656 153.71710938 134.04882812 154.73046875 C134.03706483 157.15370791 134.02062684 159.57682273 134 162 C121.44700628 162.11625534 108.89414231 162.20489831 96.34071827 162.25906086 C90.510561 162.28506662 84.6807742 162.32029926 78.85083008 162.37719727 C73.21626369 162.43183938 67.58205189 162.46148825 61.94724083 162.47438622 C59.8060009 162.48356852 57.66477864 162.50149841 55.52369118 162.52865028 C37.91977669 162.74285292 25.19502877 160.87776075 12.0703125 148.125 C2.33627072 137.76430317 -0.3137665 126.52306697 -0.22705078 112.73071289 C-0.22734283 111.51049438 -0.22763489 110.29027588 -0.22793579 109.03308105 C-0.22678532 105.7049907 -0.21678957 102.37715178 -0.20278788 99.04910588 C-0.19024281 95.56443737 -0.18910705 92.07976512 -0.18673706 88.59507751 C-0.18053335 82.0043671 -0.16413763 75.41372343 -0.14403808 68.82304233 C-0.12164446 61.3163817 -0.11067696 53.80971779 -0.10064721 46.30303204 C-0.07977035 30.86864285 -0.04310807 15.43434554 0 0 Z " fill="#022E46" transform="translate(31,24)"/>
<path d="M0 0 C6.93 0 13.86 0 21 0 C21 30.36 21 60.72 21 92 C15.39 92 9.78 92 4 92 C3.67 90.35 3.34 88.7 3 87 C1.453125 88.175625 1.453125 88.175625 -0.125 89.375 C-6.42398445 93.81320661 -12.40131529 94.87289751 -20 94 C-27.685124 92.19038809 -32.73587692 88.62805339 -37 82 C-43.01666095 71.8234518 -42.46307568 57.80018453 -40.33984375 46.48046875 C-37.62461259 38.07618183 -31.90042699 31.28663145 -24.23046875 26.91015625 C-17.30454282 24.08399033 -10.67060715 24.55791236 -3.77734375 27.11328125 C-2 28 -2 28 0 30 C0 20.1 0 10.2 0 0 Z M-17 45 C-21.12598052 51.92575302 -22.30279578 59.38648288 -20.46875 67.2890625 C-19.09230239 71.28375284 -17.6382608 74.64004705 -14 77 C-9.35469941 77.59939363 -7.16686975 77.41150479 -2.765625 75.859375 C1.2303055 71.72798923 0.61359466 68.27287165 0.52734375 62.6953125 C0.47707031 61.39335937 0.42679687 60.09140625 0.375 58.75 C0.34792969 57.43257812 0.32085937 56.11515625 0.29296875 54.7578125 C0.22222422 51.50356413 0.12354061 48.25260252 0 45 C-6.33124538 41.67147322 -11.02719001 40.15718109 -17 45 Z " fill="#FFFFFF" transform="translate(346,87)"/>
<path d="M0 0 C18.15 0 36.3 0 55 0 C55 5.61 55 11.22 55 17 C43.78 17 32.56 17 21 17 C21 22.28 21 27.56 21 33 C30.57 33 40.14 33 50 33 C50 38.61 50 44.22 50 50 C40.43 50 30.86 50 21 50 C21 55.94 21 61.88 21 68 C32.55 68 44.1 68 56 68 C56 73.61 56 79.22 56 85 C37.52 85 19.04 85 0 85 C0 56.95 0 28.9 0 0 Z " fill="#FFFFFF" transform="translate(239,94)"/>
<path d="M0 0 C7.67535834 6.55146658 11.62891961 13.60344302 12.4453125 23.71875 C12.89410554 35.19263401 11.48774135 44.10609083 3.9375 53.1875 C-2.58920833 59.97269183 -10.18552767 62.82902378 -19.5 63.0625 C-28.98089452 62.95869459 -37.03954681 59.31081444 -43.875 52.75 C-49.54118097 46.1689669 -51.90957174 37.20603503 -52.1875 28.625 C-51.29648955 17.57647048 -48.78668947 9.11112578 -40.5 1.375 C-28.87813174 -8.31952693 -12.32539429 -9.1413341 0 0 Z M-27.875 14.75 C-31.45335672 21.65993021 -32.21429724 29.32487567 -30.3359375 36.93359375 C-28.90453626 40.59074528 -26.98544003 43.37142821 -23.875 45.75 C-20.48795039 47.08699327 -19.1863016 46.86829461 -15.75 45.5625 C-11.44337783 42.84745559 -9.93760576 40.53205154 -8.625 35.6875 C-7.31024807 28.92432692 -7.41915477 21.84956367 -10.75 15.6875 C-12.72444239 12.5982969 -12.72444239 12.5982969 -15.875 10.75 C-21.33041551 10.14384272 -24.15791061 10.61990067 -27.875 14.75 Z " fill="#FFFFFF" transform="translate(736.875,118.25)"/>
<path d="M0 0 C6.6 0 13.2 0 20 0 C20.04898438 2.89007813 20.09796875 5.78015625 20.1484375 8.7578125 C20.20250183 11.5677594 20.2597879 14.37762351 20.31738281 17.1875 C20.35558233 19.13502798 20.39045075 21.08262435 20.421875 23.03027344 C20.46772196 25.83553446 20.52568366 28.64032839 20.5859375 31.4453125 C20.59748871 32.31116974 20.60903992 33.17702698 20.62094116 34.06912231 C20.7333255 38.70934798 21.02795449 42.7085836 23 47 C25.86728634 49.32319869 25.86728634 49.32319869 29.375 48.9375 C33.84691004 47.78097154 35.21531025 46.67644755 38 43 C38.73606535 39.70282926 38.72151167 36.4737341 38.70703125 33.10546875 C38.72215256 32.15811356 38.73727386 31.21075836 38.75285339 30.23469543 C38.79572747 27.21872144 38.8045682 24.20374837 38.8125 21.1875 C38.8356445 19.13864527 38.86100974 17.08981434 38.88867188 15.04101562 C38.95569057 10.02679898 38.97665296 5.01536966 39 0 C45.6 0 52.2 0 59 0 C59 21.45 59 42.9 59 65 C53.39 65 47.78 65 42 65 C41.34 63.02 40.68 61.04 40 59 C39.49210938 59.40992188 38.98421875 59.81984375 38.4609375 60.2421875 C30.93964574 66.1296406 24.59579232 68.10249529 15 67 C9.74235618 65.3815905 5.77426072 62.82926866 3 58 C0.35160867 50.50671684 -0.41889612 43.54388344 -0.29296875 35.64453125 C-0.28872391 34.61688156 -0.28447906 33.58923187 -0.28010559 32.53044128 C-0.2634907 29.29084579 -0.22587183 26.05190323 -0.1875 22.8125 C-0.17243091 20.59831636 -0.15874643 18.38412284 -0.14648438 16.16992188 C-0.11621246 10.77950212 -0.05745863 5.39047038 0 0 Z " fill="#FFFFFF" transform="translate(521,114)"/>
<path d="M0 0 C5.15010063 4.52203958 8.25287769 8.7375598 8.73443604 15.75579834 C8.79386875 18.83662458 8.78713824 21.91092501 8.7578125 24.9921875 C8.7549826 26.11569611 8.75215271 27.23920471 8.74923706 28.39675903 C8.73807303 31.97294927 8.71297501 35.5488859 8.6875 39.125 C8.67746533 41.55468387 8.66834033 43.98437169 8.66015625 46.4140625 C8.638146 52.3594722 8.6036418 58.30469315 8.5625 64.25 C1.9625 64.25 -4.6375 64.25 -11.4375 64.25 C-11.49808594 61.10855469 -11.55867187 57.96710938 -11.62109375 54.73046875 C-11.6828792 51.69227684 -11.74626855 48.65412234 -11.80981445 45.6159668 C-11.85316064 43.5023938 -11.89483594 41.38878586 -11.93481445 39.27514648 C-11.99252449 36.23931336 -12.05621701 33.20365611 -12.12109375 30.16796875 C-12.13780624 29.22100632 -12.15451874 28.27404388 -12.17173767 27.29838562 C-12.2016555 25.97735588 -12.2016555 25.97735588 -12.23217773 24.62963867 C-12.25549416 23.46714851 -12.25549416 23.46714851 -12.27928162 22.28117371 C-12.37105377 20.04667507 -12.37105377 20.04667507 -13.4375 17.25 C-16.54703379 15.6952331 -19.00016761 15.96355563 -22.4375 16.25 C-25.04597629 17.74745861 -27.30778902 19.12028902 -29.4375 21.25 C-29.55935143 22.59983748 -29.61516831 23.95574701 -29.64282227 25.31079102 C-29.66276749 26.17160782 -29.68271271 27.03242462 -29.70326233 27.91932678 C-29.72833107 29.32244362 -29.72833107 29.32244362 -29.75390625 30.75390625 C-29.77468735 31.70692123 -29.79546844 32.65993622 -29.81687927 33.64183044 C-29.88248177 36.6986441 -29.94130918 39.75554656 -30 42.8125 C-30.04317506 44.87956663 -30.08678901 46.94662414 -30.13085938 49.01367188 C-30.23900336 54.09235808 -30.3379969 59.17110761 -30.4375 64.25 C-37.0375 64.25 -43.6375 64.25 -50.4375 64.25 C-50.4375 42.8 -50.4375 21.35 -50.4375 -0.75 C-44.8275 -0.75 -39.2175 -0.75 -33.4375 -0.75 C-32.7775 1.23 -32.1175 3.21 -31.4375 5.25 C-30.880625 4.84007813 -30.32375 4.43015625 -29.75 4.0078125 C-20.53492508 -2.49877756 -10.68929666 -5.44182376 0 0 Z " fill="#FFFFFF" transform="translate(811.4375,114.75)"/>
<path d="M0 0 C6.6 0 13.2 0 20 0 C20.04898437 3.12984375 20.09796875 6.2596875 20.1484375 9.484375 C20.20244893 12.51599912 20.25975583 15.54754427 20.31738281 18.57910156 C20.35566306 20.68581254 20.3905176 22.79258867 20.421875 24.89941406 C20.46754598 27.92797121 20.52553745 30.95608022 20.5859375 33.984375 C20.59748871 34.92617615 20.60903992 35.86797729 20.62094116 36.83831787 C20.64081085 37.71892883 20.66068054 38.59953979 20.68115234 39.50683594 C20.69447601 40.27960876 20.70779968 41.05238159 20.7215271 41.84857178 C21.04013354 44.31006401 21.65139603 45.91873326 23 48 C26.77997874 49.28862912 28.52786205 49.19067109 32.25 47.6875 C35.02154478 46.13369179 35.02154478 46.13369179 37 44 C37.32956935 42.02239739 37.32956935 42.02239739 37.31884766 39.73388672 C37.33871735 38.85312469 37.35858704 37.97236267 37.37905884 37.06491089 C37.39061005 36.11278717 37.40216125 35.16066345 37.4140625 34.1796875 C37.43342865 33.20589142 37.4527948 32.23209534 37.4727478 31.22879028 C37.53264558 28.11094997 37.57896971 24.99307294 37.625 21.875 C37.66317039 19.76430659 37.70222156 17.65362892 37.7421875 15.54296875 C37.84001741 10.36205988 37.91950519 5.18132359 38 0 C44.6 0 51.2 0 58 0 C58 21.45 58 42.9 58 65 C52.72 65 47.44 65 42 65 C41.34 62.69 40.68 60.38 40 58 C39.57589844 58.39832031 39.15179688 58.79664063 38.71484375 59.20703125 C32.17969677 65.11020797 26.5300067 67.58122458 17.64453125 67.27734375 C11.14352873 66.59555471 7.39750708 63.86836431 3.26171875 59.109375 C-0.61787791 52.62336201 -0.26675737 45.69852056 -0.1953125 38.37890625 C-0.1924826 37.27900864 -0.18965271 36.17911102 -0.18673706 35.04588318 C-0.1755898 31.55130897 -0.15049498 28.05699606 -0.125 24.5625 C-0.11496316 22.18555059 -0.10583854 19.80859714 -0.09765625 17.43164062 C-0.07566827 11.62099389 -0.04117582 5.81054117 0 0 Z " fill="#FFFFFF" transform="translate(382,114)"/>
<path d="M0 0 C17.82 0 35.64 0 54 0 C54 5.61 54 11.22 54 17 C42.78 17 31.56 17 20 17 C20 22.94 20 28.88 20 35 C29.57 35 39.14 35 49 35 C49 40.61 49 46.22 49 52 C39.43 52 29.86 52 20 52 C20 62.89 20 73.78 20 85 C13.4 85 6.8 85 0 85 C0 56.95 0 28.9 0 0 Z " fill="#FFFFFF" transform="translate(458,94)"/>
<path d="M0 0 C-1.49076434 3.2826932 -3.38620321 5.93077441 -5.625 8.75 C-6.25664063 9.54921875 -6.88828125 10.3484375 -7.5390625 11.171875 C-8.02117188 11.77515625 -8.50328125 12.3784375 -9 13 C-11.4024737 12.06570467 -13.71271744 11.16432562 -15.953125 9.8828125 C-18.64586727 8.72143893 -20.83127821 8.80550662 -23.75 8.875 C-24.73484375 8.89304688 -25.7196875 8.91109375 -26.734375 8.9296875 C-27.85585938 8.96449219 -27.85585938 8.96449219 -29 9 C-29 10.98 -29 12.96 -29 15 C-28.154375 15.27199219 -27.30875 15.54398438 -26.4375 15.82421875 C-7.05914972 22.45249538 -7.05914972 22.45249538 -1.125 30.5625 C0.77642316 36.37240411 1.32673231 42.62584129 -0.94921875 48.4140625 C-4.89516632 55.06117922 -9.71227794 58.46427642 -17.1328125 60.45703125 C-27.66922986 62.45234734 -38.02271039 61.17454785 -47.3046875 55.62109375 C-48.92021735 54.48243717 -50.47028843 53.2515822 -52 52 C-50.40956621 46.91061189 -47.2553049 43.12543357 -44 39 C-41.49593376 39.99091391 -39.00546968 40.99762489 -36.53515625 42.0703125 C-30.01644176 44.88830403 -30.01644176 44.88830403 -23 45 C-22.01 44.34 -21.02 43.68 -20 43 C-19.87184635 40.6147267 -19.87184635 40.6147267 -21 38 C-23.66802515 36.43945699 -26.17891068 35.22276317 -29 34 C-45.53116382 26.3110866 -45.53116382 26.3110866 -49 17 C-49.67220575 9.94183965 -48.40025797 4.94888836 -43.8125 -0.6875 C-29.79845422 -12.21015987 -14.40172476 -8.56027752 0 0 Z " fill="#FFFFFF" transform="translate(642,120)"/>
<path d="M0 0 C6.63496904 0.04192713 13.26911668 0.11450205 19.90356445 0.20751953 C22.15641858 0.23559349 24.40936873 0.25687492 26.66235352 0.27099609 C29.91732463 0.29261423 33.17115764 0.33936101 36.42578125 0.390625 C37.41894852 0.39185364 38.41211578 0.39308228 39.43537903 0.39434814 C52.11862269 0.65482014 62.48233342 5.76129677 71.75 14.25 C77.93491224 20.76573313 79.89405197 27.15241575 81 36 C60.21 36 39.42 36 18 36 C16.515 29.07 16.515 29.07 15 22 C11.95192294 14.2370493 7.68626959 7.97469511 1.50390625 2.390625 C1.00761719 1.93171875 0.51132813 1.4728125 0 1 C0 0.67 0 0.34 0 0 Z " fill="#0397D2" transform="translate(126,95)"/>
<path d="M0 0 C6.6 0 13.2 0 20 0 C20 21.45 20 42.9 20 65 C13.4 65 6.8 65 0 65 C0 43.55 0 22.1 0 0 Z " fill="#FFFFFF" transform="translate(653,114)"/>
<path d="M0 0 C12.06861943 2.41372389 21.30465172 6.10598078 29 16 C34.43196496 24.87266097 35 31.21062958 35 42 C23.45 42 11.9 42 0 42 C0 28.14 0 14.28 0 0 Z " fill="#8EAF30" transform="translate(84,90)"/>
<path d="M0 0 C9.9 0 19.8 0 30 0 C30 14.52 30 29.04 30 44 C26.04 41.69 22.08 39.38 18 37 C16.31390625 36.28199219 14.6278125 35.56398437 12.890625 34.82421875 C7.89845858 32.63021922 3.24557558 30.53494143 0 26 C-2.26919914 17.36928532 -0.80423075 8.80185873 0 0 Z " fill="#0294CD" transform="translate(31,24)"/>
<path d="M0 0 C20.53191489 -0.19148936 20.53191489 -0.19148936 30 1 C29.3461409 9.28221521 24.7923865 17.2076135 19 23 C10.60035472 29.56171905 3.14705341 32.52563932 -7.5 32.1875 C-8.32242188 32.17396484 -9.14484375 32.16042969 -9.9921875 32.14648438 C-11.99508221 32.11155016 -13.99763356 32.05776057 -16 32 C-15.23816406 31.25234375 -14.47632813 30.5046875 -13.69140625 29.734375 C-5.1289985 21.03526698 -0.51273852 12.28008767 0 0 Z " fill="#0397D2" transform="translate(168,41)"/>
<path d="M0 0 C4.33310328 -0.116965 8.6657958 -0.1875089 13 -0.25 C14.22074219 -0.28351563 15.44148437 -0.31703125 16.69921875 -0.3515625 C23.98576972 -0.43033602 28.83984023 -0.00299191 35 4 C38.7424638 7.86318843 39.12948266 11.76484323 39.09765625 16.984375 C39.09443359 17.91894531 39.09121094 18.85351562 39.08789062 19.81640625 C39.07532227 21.26853516 39.07532227 21.26853516 39.0625 22.75 C39.05798828 23.73355469 39.05347656 24.71710938 39.04882812 25.73046875 C39.03706483 28.15370791 39.02062684 30.57682273 39 33 C35.43458792 33.51395665 33.19767053 33.79207453 30.1321106 31.76467896 C28.10277281 29.9290765 26.20388371 28.01643991 24.31640625 26.03515625 C23.61603745 25.32725449 22.91566864 24.61935272 22.19407654 23.88999939 C19.9666381 21.63007154 17.76500212 19.34670978 15.5625 17.0625 C14.05429937 15.52775737 12.54455002 13.99453504 11.03320312 12.46289062 C8.28841379 9.66777948 5.54649643 6.87020719 2.82641602 4.05102539 C2.27905289 3.48476944 1.73168976 2.91851349 1.16773987 2.33509827 C0 1 0 1 0 0 Z " fill="#9EB529" transform="translate(126,153)"/>
<path d="M0 0 C4.44059919 -1.10449498 8.63055544 -1.49087996 13 0 C19.47799921 4.18400535 24.59587996 10.33289126 29.8125 15.9375 C31.29191237 17.47360725 32.7743111 19.00684427 34.25976562 20.53710938 C36.94777117 23.32420395 39.62482052 26.12002745 42.26879883 28.94897461 C42.79806473 29.51523056 43.32733063 30.08148651 43.87263489 30.66490173 C45 32 45 32 45 33 C32.90317866 33.84233185 22.71751106 30.23163614 13 23 C6.7570195 17.39227014 2.70774355 10.94097867 0 3 C0 2.01 0 1.02 0 0 Z " fill="#2F6E2D" transform="translate(113,153)"/>
<path d="M0 0 C0 9.57 0 19.14 0 29 C-8.90198911 27.21960218 -15.46547517 22.09169118 -22.6171875 16.671875 C-26.32879349 14.06766621 -29.33735853 13.84080452 -33.76171875 13.68359375 C-35.43911133 13.62075195 -35.43911133 13.62075195 -37.15039062 13.55664062 C-38.31763672 13.51732422 -39.48488281 13.47800781 -40.6875 13.4375 C-42.45577148 13.37272461 -42.45577148 13.37272461 -44.25976562 13.30664062 C-47.17305883 13.20048824 -50.08643757 13.09843758 -53 13 C-53.33 12.01 -53.66 11.02 -54 10 C-53.67 9.34 -53.34 8.68 -53 8 C-52.08412109 8.00112793 -51.16824219 8.00225586 -50.22460938 8.00341797 C-26.34327577 8.41108118 -26.34327577 8.41108118 -4 1 C-2 0 -2 0 0 0 Z " fill="#256628" transform="translate(213,12)"/>
<path d="M0 0 C2.08505386 1.59110033 2.87048594 2.56227526 3.6171875 5.0859375 C4.04837925 8.91439756 4.28502209 11.33019809 2.75 14.9375 C0.55013587 17.53019701 -1.10939161 18.88143603 -4.5234375 19.3359375 C-12.26339286 19.44196429 -12.26339286 19.44196429 -16.125 17.125 C-19.04407363 13.81671656 -19.34969332 11.46455779 -19.27734375 7.03515625 C-18.82677364 3.72886011 -17.44491923 2.18755931 -15 0 C-9.93446963 -2.70946973 -5.21100052 -2.03477163 0 0 Z " fill="#FFFFFF" transform="translate(671,86)"/>
<path d="M0 0 C4.0900205 1.54588911 7.37312286 3.55580019 11 6 C14.28519475 7.09506492 16.73663415 7.09960608 20.1875 7.0625 C21.27417969 7.05347656 22.36085937 7.04445313 23.48046875 7.03515625 C24.31191406 7.02355469 25.14335937 7.01195313 26 7 C24.55366256 10.60411654 22.80863332 12.11402568 19.5625 14.1875 C18.78003906 14.69667969 17.99757812 15.20585938 17.19140625 15.73046875 C13.49173925 17.87376959 10.57406058 18.13607932 6.375 18.125 C5.39273438 18.12757812 4.41046875 18.13015625 3.3984375 18.1328125 C1 18 1 18 0 17 C-0.07325168 14.13732433 -0.09238205 11.299281 -0.0625 8.4375 C-0.05798828 7.63119141 -0.05347656 6.82488281 -0.04882812 5.99414062 C-0.03700518 3.99606244 -0.01906914 1.99802217 0 0 Z " fill="#81A43B" transform="translate(213,57)"/>
<path d="M0 0 C0.66 0.33 1.32 0.66 2 1 C2 17.17 2 33.34 2 50 C0.68 50 -0.64 50 -2 50 C-2 33.83 -2 17.66 -2 1 C-1.34 0.67 -0.68 0.34 0 0 Z " fill="#2B6526" transform="translate(215,77)"/>
<path d="M0 0 C0.042721 1.66611905 0.04063832 3.33382885 0 5 C-1 6 -1 6 -3.5 6.125 C-6 6 -6 6 -7 5 C-7.04063832 3.33382885 -7.042721 1.66611905 -7 0 C-4.3333581 -1.33332095 -2.83319697 -0.67102033 0 0 Z " fill="#0092EC" transform="translate(156,20)"/>
<path d="M0 0 C2.125 0.375 2.125 0.375 4 1 C4.625 2.875 4.625 2.875 5 5 C4.34 5.66 3.68 6.32 3 7 C0.875 6.625 0.875 6.625 -1 6 C-1.625 4.125 -1.625 4.125 -2 2 C-1.34 1.34 -0.68 0.68 0 0 Z " fill="#4F7B42" transform="translate(214,129)"/>
</svg>
