<?xml version="1.0" encoding="UTF-8"?>
<svg version="1.1" xmlns="http://www.w3.org/2000/svg" width="847" height="766">
<path d="M0 0 C1.24656067 -0.00199105 2.49312134 -0.0039821 3.77745658 -0.00603348 C5.15798448 -0.00318062 6.5385122 -0.00023503 7.91903973 0.00279331 C9.38765932 0.00235723 10.85627884 0.00148164 12.32489794 0.00020415 C16.36116984 -0.00203356 20.39741524 0.00197061 24.43368375 0.00698221 C28.78605643 0.01129688 33.13842759 0.00983956 37.49080181 0.00907993 C45.03180388 0.00855535 52.5727973 0.01169537 60.11379719 0.01731777 C71.0168446 0.02544156 81.91988782 0.0280489 92.82293793 0.02930576 C110.5120126 0.0314949 128.20108267 0.03815124 145.89015484 0.04760838 C163.0743994 0.05678607 180.2586427 0.06386516 197.44288921 0.06811619 C198.50195903 0.06837891 199.56102884 0.06864164 200.65219168 0.06891232 C205.96518379 0.07021735 211.27817592 0.07148106 216.59116805 0.07272422 C260.67431332 0.08309252 304.75745357 0.10070708 348.84059429 0.12304783 C348.52548681 1.73247862 348.20852167 3.34154578 347.89076519 4.95045567 C347.71445316 5.84654325 347.53814114 6.74263083 347.35648632 7.66587257 C346.45305903 11.9688644 344.92316819 15.96897721 343.34059429 20.06054783 C342.99093609 20.96514744 342.64127789 21.86974705 342.28102398 22.80175877 C333.83547605 44.07504851 321.82413625 62.76063672 305.84059429 79.12304783 C305.0426646 79.98285252 304.24473492 80.8426572 303.42262554 81.72851658 C284.70288643 101.42546883 255.09276162 117.43466475 227.66409588 118.59770298 C224.97421476 118.65896987 222.28680366 118.70568114 219.59669781 118.73901463 C218.1014354 118.76783644 216.60619597 118.79787127 215.11098003 118.82901096 C211.07382488 118.90957918 207.03656799 118.97300249 202.99906182 119.03301692 C198.71583522 119.09947713 194.43289895 119.18131859 190.1499052 119.26118565 C182.92511255 119.39374822 175.70020658 119.51599007 168.47511578 119.63110447 C158.45400916 119.79080942 148.43334333 119.97083544 138.41264749 120.15426898 C102.55539144 120.80713073 66.70513501 121.38639595 30.84059429 121.12304783 C30.84510601 121.96047016 30.84961773 122.79789249 30.85426617 123.66069126 C30.94326094 140.96623468 30.80911484 158.25804973 30.46727276 175.56079197 C30.4245359 177.72482542 30.38329304 179.88888889 30.3435545 182.05297947 C30.28629386 185.12203178 30.22268687 188.19088433 30.15700054 191.25976658 C30.14028301 192.18246845 30.12356548 193.10517033 30.10634136 194.05583286 C30.08640118 194.91421253 30.06646099 195.7725922 30.04591656 196.65698338 C30.03037228 197.40207661 30.014828 198.14716984 29.99881268 198.91484165 C29.82227042 201.37878852 29.36942358 203.71225082 28.84059429 206.12304783 C30.48155827 206.1160461 30.48155827 206.1160461 32.15567303 206.10890293 C49.31638802 206.06096338 66.4738881 206.28441616 83.63290954 206.49397445 C86.24160959 206.52575611 88.85031378 206.55717422 91.45901966 206.58847332 C100.63220726 206.69854503 109.80537762 206.80994497 118.97853374 206.92260838 C127.40956463 207.02612198 135.84062693 207.1267053 144.27170986 207.22588056 C151.60347638 207.31226214 158.93521491 207.40080692 166.26693684 207.49089342 C170.60387338 207.54414822 174.94081499 207.5966534 179.27778721 207.64692593 C190.4659016 207.77725153 201.65333524 207.93269652 212.84059429 208.12304783 C213.68831481 208.13713515 214.53603532 208.15122247 215.40944433 208.16573668 C220.63523035 208.25381862 225.86056676 208.35424446 231.08581269 208.47010052 C232.72628986 208.50524485 234.36683682 208.53729693 236.00744045 208.56593597 C247.03084049 208.76272669 257.35742589 209.52496832 267.78932476 213.36962986 C269.96801976 214.16985037 272.16532205 214.88038612 274.37575054 215.58789158 C292.81739401 221.70376231 310.6802871 230.93031001 325.84059429 243.12304783 C326.40455914 243.5756699 326.96852398 244.02829197 327.54957867 244.49462986 C331.39756809 247.6133111 335.13867472 250.83245265 338.84059429 254.12304783 C339.54442242 254.74179783 340.24825054 255.36054783 340.97340679 255.99804783 C362.68184604 276.34403273 376.86215645 306.03848992 381.84059429 335.12304783 C381.86335756 336.78955904 381.86767939 338.45660126 381.84059429 340.12304783 C318.05577572 340.79112652 254.27068209 341.42658872 190.48482227 341.98737621 C178.14707947 342.09594061 165.80936571 342.20669405 153.47169781 342.32348728 C73.2589475 343.08112795 -6.94393946 343.24157497 -87.15940571 343.12304783 C-87.25105351 308.69316101 -87.32149121 274.26330214 -87.36366703 239.83331959 C-87.36866958 235.76428675 -87.37384689 231.69525414 -87.37913227 227.62622166 C-87.38018151 226.81618447 -87.38123075 226.00614729 -87.38231179 225.17156353 C-87.39969513 212.07265931 -87.43122135 198.97382564 -87.46801689 185.8749632 C-87.50548406 172.42436723 -87.52765375 158.97380808 -87.53575969 145.52316207 C-87.54123551 137.23002175 -87.55850135 128.93708088 -87.59107158 120.64400198 C-87.61229087 114.94944023 -87.61858907 109.2549809 -87.61341122 103.56038252 C-87.61086087 100.27971047 -87.61686132 96.99945675 -87.63622761 93.71883106 C-87.77741517 68.5604618 -87.77741517 68.5604618 -83.15940571 58.12304783 C-82.88439857 57.43787492 -82.60939144 56.75270201 -82.32605076 56.04676628 C-72.39967625 32.47028429 -53.33804754 16.45728869 -30.18919086 6.89746189 C-20.5868597 3.23393117 -10.32038021 -0.00364035 0 0 Z " fill="#037AB0" transform="translate(334.159405708313,137.87695217132568)"/>
<path d="M0 0 C37.29 0 74.58 0 113 0 C113.00410889 13.18976807 113.00821777 26.37953613 113.01245117 39.96899414 C113.02911511 82.18931124 113.07028932 124.40957269 113.12685562 166.62985444 C113.13562219 173.18984087 113.14417203 179.74982757 113.15258789 186.30981445 C113.15426695 187.61576907 113.15594602 188.92172368 113.15767596 190.26725268 C113.18433308 211.40266472 113.19344012 232.53804964 113.19604143 253.67347676 C113.19910276 275.36643514 113.22107031 297.0593152 113.26052457 318.75223821 C113.28426865 332.13389026 113.2933321 345.51538589 113.28351311 358.8970561 C113.27819025 368.07804662 113.29126076 377.25889721 113.3186629 386.43984789 C113.33392467 391.73382917 113.34120339 397.02749717 113.32659721 402.32148743 C113.31338285 407.17615601 113.32346344 412.03021933 113.35143773 416.88482016 C113.35751512 418.63338446 113.3553208 420.38200317 113.34362926 422.13053895 C113.27409593 433.42041189 114.71078838 442.48964885 119 453 C119.30732738 453.76061944 119.61465476 454.52123887 119.9312951 455.30490738 C126.58230495 470.72425564 137.48286481 483.19699674 152.5546875 490.7109375 C161.34152295 493.998529 169.70492241 495.44183129 179.05639648 495.28417969 C180.67844466 495.27673611 180.67844466 495.27673611 182.33326149 495.26914215 C184.73837713 495.25658856 187.14346404 495.23715761 189.54847908 495.21183014 C193.60172851 495.17014588 197.65470408 495.14719694 201.70811462 495.1305542 C203.19224645 495.12431957 204.67637826 495.11808248 206.16051006 495.11184311 C206.92229828 495.1086845 207.6840865 495.10552588 208.46895921 495.10227156 C210.88498715 495.09155993 213.30099885 495.07890319 215.71701527 495.06586075 C252.36221156 494.87501429 289.01030221 495.07042431 325.65554237 495.18386078 C338.76100606 495.22403722 351.86640462 495.25632977 364.97192383 495.27099609 C376.59870366 495.28402162 388.22535364 495.3109389 399.85206026 495.35461307 C405.94992994 495.37706757 412.04764077 495.3929197 418.1455555 495.39188385 C423.83539852 495.39113639 429.52488212 495.40912115 435.21463203 495.44116783 C437.28695536 495.4496272 439.35931916 495.45144398 441.43165207 495.44580269 C462.10924916 495.3970227 480.20480611 498.65543054 495.78125 513.625 C507.96702181 526.66892475 509.60108498 539.81025349 509.390625 556.890625 C509.38314871 558.68950771 509.37746235 560.48839866 509.37347412 562.28729248 C509.35832691 566.98259653 509.31914163 571.67739206 509.2746582 576.37249756 C509.23346765 581.17925135 509.21541271 585.98608869 509.1953125 590.79296875 C509.15263481 600.19553382 509.08451871 609.59772434 509 619 C463.36822425 619.11461517 417.73646383 619.20263492 372.10457234 619.25532665 C366.7089562 619.26157967 361.31334033 619.26805133 355.91772461 619.2746582 C354.8436212 619.27596976 353.76951778 619.27728131 352.66286578 619.2786326 C335.30468509 619.30034867 317.94658777 619.33974912 300.58845643 619.38576398 C282.75789456 619.43263459 264.92737615 619.46031775 247.09675521 619.47044247 C236.10733124 619.4772797 225.118143 619.49882046 214.12879165 619.53958233 C206.57791341 619.56615182 199.02715581 619.57396908 191.47623429 619.56750689 C187.1292744 619.56432594 182.78272441 619.56896359 178.4358387 619.59602737 C160.79867596 619.70028536 143.93799216 619.61999718 127 614 C126.15411587 613.72200298 125.30823175 613.44400596 124.43671477 613.15758479 C113.1224676 609.388736 102.49547256 604.64376582 92 599 C91.40912598 598.68981934 90.81825195 598.37963867 90.20947266 598.06005859 C48.18629115 575.91856062 19.3467425 536.7800078 5.41113281 491.96826172 C4.20615584 487.99333458 3.05185821 484.01825888 2 480 C1.81888739 479.34928012 1.63777478 478.69856025 1.4511739 478.02812159 C-0.69345725 469.12718318 -0.27080902 460.04693232 -0.24050903 450.95443726 C-0.24138184 449.00714996 -0.24313421 447.0598629 -0.24568737 445.11257708 C-0.25015008 439.77640064 -0.24217197 434.44030479 -0.23213124 429.10413861 C-0.22348356 423.34420609 -0.22641784 417.58427801 -0.22793579 411.82434082 C-0.22898381 401.84975485 -0.2227159 391.87519507 -0.21146011 381.90061569 C-0.1951968 367.47910194 -0.18999625 353.05760084 -0.18748413 338.63607891 C-0.18310834 315.23735923 -0.16981956 291.8386535 -0.15087891 268.43994141 C-0.13250255 245.71207756 -0.11833899 222.98421745 -0.10986328 200.25634766 C-0.10960023 199.55545664 -0.10933718 198.85456562 -0.10906615 198.13243548 C-0.10642905 191.09363374 -0.10387743 184.05483198 -0.10138843 177.01603018 C-0.09631636 162.6778924 -0.09067386 148.33975486 -0.08468628 134.00161743 C-0.08413683 132.68484373 -0.08358737 131.36807003 -0.08302127 130.0113941 C-0.06468765 86.67425613 -0.03199765 43.3371301 0 0 Z " fill="#022E46" transform="translate(44,70)"/>
<path d="M0 0 C32.38553599 -0.13153092 64.76203662 0.00768702 97.14516068 0.40571976 C99.70263082 0.43692207 102.26011123 0.46709965 104.81759644 0.49703979 C115.38160154 0.62206761 125.9449764 0.77181464 136.50811386 0.95648193 C138.20329798 0.98608647 139.89849145 1.01515984 141.59369278 1.04376221 C146.8258679 1.13270066 152.05761705 1.23317019 157.28926849 1.34898567 C158.92669014 1.38399112 160.56418131 1.41590958 162.20172882 1.44442558 C173.21339474 1.64052961 183.52801613 2.40604253 193.94873047 6.24658203 C196.12742546 7.04680255 198.32472776 7.75733829 200.53515625 8.46484375 C218.97679972 14.58071448 236.83969281 23.80726219 252 36 C252.84594727 36.67893311 252.84594727 36.67893311 253.70898438 37.37158203 C257.5569738 40.49026327 261.29808042 43.70940482 265 47 C265.70382812 47.61875 266.40765625 48.2375 267.1328125 48.875 C288.84125175 69.2209849 303.02156216 98.91544209 308 128 C308.02276327 129.66651121 308.0270851 131.33355343 308 133 C294.62505606 133.15109386 281.25005009 133.29612564 267.875 133.4375 C266.832584 133.44852123 265.790168 133.45954247 264.71616364 133.47089767 C220.76978252 133.93353612 176.82272207 134.26038207 132.875 134.5625 C132.06830714 134.56804948 131.26161428 134.57359897 130.43047619 134.57931662 C109.62033657 134.7224186 88.81017884 134.8627152 68 135 C67.86477936 133.76198639 67.72955872 132.52397278 67.59024048 131.2484436 C67.40998584 129.60914533 67.22967485 127.96985326 67.04931641 126.33056641 C66.96053726 125.51636734 66.87175812 124.70216827 66.7802887 123.86329651 C61.96256844 80.1829095 41.64083236 34.96033909 6.875 6.875 C5.98554688 6.19179688 5.09609375 5.50859375 4.1796875 4.8046875 C2 3 2 3 0 0 Z " fill="#0397D2" transform="translate(408,345)"/>
<path d="M0 0 C8.68488996 0.868489 15.80417694 2.42485913 24 5 C25.04534912 5.31928467 25.04534912 5.31928467 26.11181641 5.64501953 C61.42663303 16.47657716 91.58490267 36.83009616 112 68 C112.84498047 69.28197266 112.84498047 69.28197266 113.70703125 70.58984375 C130.36222542 97.39605921 133.75863668 126.96591708 135 158 C90.45 158 45.9 158 0 158 C0 105.86 0 53.72 0 0 Z " fill="#8EAF30" transform="translate(247,323)"/>
<path d="M0 0 C37.29 0 74.58 0 113 0 C113 54.78 113 109.56 113 166 C109.25978409 164.50391364 106.44046253 163.15892382 103.10546875 161.05078125 C102.1621167 160.4575708 101.21876465 159.86436035 100.24682617 159.25317383 C99.23724854 158.61275146 98.2276709 157.9723291 97.1875 157.3125 C95.0209132 155.94778986 92.85424421 154.58321021 90.6875 153.21875 C89.57890625 152.51878906 88.4703125 151.81882813 87.328125 151.09765625 C82.12545426 147.81850814 76.90560485 144.56700628 71.6875 141.3125 C63.85195879 136.41851767 56.03110808 131.50214444 48.22583008 126.56005859 C43.85484746 123.79501626 39.47499166 121.04487486 35.0859375 118.30859375 C34.05533203 117.66599609 33.02472656 117.02339844 31.96289062 116.36132812 C29.99625362 115.13606725 28.02888427 113.91198051 26.06054688 112.68945312 C24.19123484 111.52485748 22.33534945 110.33841063 20.49409485 109.12994385 C17.98243758 107.53074148 15.42948707 106.23914083 12.73002625 104.98565674 C1.42101226 99.35151844 1.42101226 99.35151844 -0.95030975 93.75865364 C-2.40259841 87.22018746 -1.95422818 80.57004699 -1.66015625 73.92578125 C-1.63511881 72.03080752 -1.61780191 70.13571577 -1.60827637 68.24060059 C-1.51963171 61.26275831 -1.28227965 54.28744355 -1.0625 47.3125 C-0.711875 31.699375 -0.36125 16.08625 0 0 Z " fill="#0294CD" transform="translate(44,70)"/>
<path d="M0 0 C37.95 0 75.9 0 115 0 C113.54736632 7.26316841 112.10752017 13.19604362 109.5 19.9375 C109.1503418 20.84209961 108.80068359 21.74669922 108.44042969 22.67871094 C99.99488176 43.95200068 87.98354196 62.63758889 72 79 C71.20207031 79.85980469 70.40414062 80.71960938 69.58203125 81.60546875 C54.23704711 97.75149611 34.09341788 108.42462857 13 115 C12.18990479 115.27593994 11.37980957 115.55187988 10.54516602 115.83618164 C0.09448245 118.97994437 -10.75046602 118.56710645 -21.5625 118.6875 C-23.56317203 118.7207661 -25.56382397 118.75526387 -27.56445312 118.79101562 C-39.7096457 118.99499549 -51.85335697 119.04004681 -64 119 C-60.99091751 115.95549049 -57.96486085 113.07386143 -54.64990234 110.36230469 C-37.18914505 96.0650005 -23.50875548 79.99679299 -13 60 C-12.46761719 59.01257813 -11.93523438 58.02515625 -11.38671875 57.0078125 C-2.23409452 38.79716481 -0.82140021 20.53500531 0 0 Z " fill="#0397D2" transform="translate(568,138)"/>
<path d="M0 0 C12.38810355 -0.09310038 24.77612246 -0.16396701 37.16450596 -0.20724869 C42.91830965 -0.22803245 48.67187217 -0.25618016 54.42553711 -0.30175781 C59.9887774 -0.34554609 65.55178722 -0.36920618 71.11518669 -0.37950897 C73.22684285 -0.38684156 75.33848787 -0.40115856 77.45004463 -0.42292023 C98.55126643 -0.63153771 116.84556782 2.31018855 132.78125 17.625 C144.96702181 30.66892475 146.60108498 43.81025349 146.390625 60.890625 C146.38314871 62.68950771 146.37746235 64.48839866 146.37347412 66.28729248 C146.35832691 70.98259653 146.31914163 75.67739206 146.2746582 80.37249756 C146.23346765 85.17925135 146.21541271 89.98608869 146.1953125 94.79296875 C146.15263481 104.19553382 146.08451871 113.59772434 146 123 C137.08677149 125.04401015 127.81340014 125.96577392 119.75274658 120.99920654 C111.93260075 115.01452982 105.3184268 107.48365001 98.70892334 100.22991943 C95.96544949 97.24316886 93.15794116 94.31806708 90.35351562 91.38867188 C87.19446787 88.08373831 84.04215862 84.77460703 80.93971252 81.41636658 C76.58669998 76.70841326 72.21841211 72.21142511 67.32347107 68.06697083 C61.2935691 62.70274158 55.70010864 56.84230132 50 51.1328125 C48.55426381 49.68775067 47.10837926 48.24283726 45.66235352 46.79806519 C42.64843852 43.78561761 39.63632288 40.7713856 36.62548828 37.75585938 C32.75722984 33.88186821 28.88445089 30.01243196 25.01034546 26.14428902 C22.03184797 23.16939244 19.05572061 20.19213399 16.08032227 17.21413803 C14.65203341 15.78518045 13.22299683 14.35696985 11.79321289 12.92950821 C9.80633479 10.94515276 7.82266144 8.95764984 5.83984375 6.96923828 C4.94699928 6.07943016 4.94699928 6.07943016 4.03611755 5.17164612 C0 1.11426966 0 1.11426966 0 0 Z " fill="#9EB529" transform="translate(407,566)"/>
<path d="M0 0 C41.65969446 -5.95269088 41.65969446 -5.95269088 57.09217262 4.62047768 C67.48508123 12.6835462 76.21367613 22.60853571 84.81115723 32.50488281 C88.59728767 36.80608138 92.52898094 40.96968446 96.45117188 45.14648438 C102.75210492 51.88169133 108.97395486 58.67790066 115.04319763 65.62330627 C118.50772964 69.53533735 122.17459945 73.00368199 126.14527035 76.3998518 C128.5134092 78.44293831 130.73492973 80.60783935 132.94726562 82.81787109 C133.82757446 83.69502777 134.7078833 84.57218445 135.61486816 85.47592163 C136.53602417 86.39910187 137.45718018 87.3222821 138.40625 88.2734375 C139.38116139 89.24767377 140.35622106 90.22176169 141.3314209 91.19570923 C143.35668724 93.21951328 145.38016358 95.24508505 147.40234375 97.27197266 C149.99937897 99.87475807 152.60095087 102.47295579 155.20383453 105.06989098 C157.20954628 107.0720027 159.21288713 109.07647303 161.21549988 111.08168411 C162.17488649 112.04173879 163.1350192 113.00104846 164.09590149 113.95960617 C165.42897608 115.29015773 166.75852945 116.62423443 168.08789062 117.95849609 C168.84541626 118.71681732 169.60294189 119.47513855 170.38342285 120.25643921 C172 122 172 122 172 123 C133.64891764 124.06258327 133.64891764 124.06258327 115 118 C113.61917236 117.55793213 113.61917236 117.55793213 112.21044922 117.10693359 C99.94872306 113.09616656 88.31963938 108.17581465 77 102 C75.47246094 101.18982422 75.47246094 101.18982422 73.9140625 100.36328125 C55.89538586 90.38779405 39.34252834 76.49494029 27 60 C25.92878906 58.59427734 25.92878906 58.59427734 24.8359375 57.16015625 C15.87701526 44.86142378 8.5079268 31.07881364 3.375 16.75 C3.13950439 16.09612305 2.90400879 15.44224609 2.66137695 14.76855469 C1.4929298 11.2717094 0.80976538 7.909041 0.43603516 4.25878906 C0.35245758 3.45830139 0.26888 2.65781372 0.18276978 1.83306885 C0.12245575 1.22815613 0.06214172 0.62324341 0 0 Z " fill="#2E6E2D" transform="translate(358,566)"/>
<path d="M0 0 C0 35.97 0 71.94 0 109 C-17.3938085 103.20206383 -17.3938085 103.20206383 -23 100.25 C-23.65387695 99.91347412 -24.30775391 99.57694824 -24.98144531 99.23022461 C-38.85099376 91.98749714 -51.33346788 83.50073128 -63.4375 73.5625 C-64.33984375 72.82257813 -65.2421875 72.08265625 -66.171875 71.3203125 C-68.12530624 69.71763549 -70.07287246 68.10779259 -72.015625 66.4921875 C-87.10721865 54.20855061 -103.83298922 46.86932361 -123.47387695 46.84228516 C-124.29098648 46.83720444 -125.10809601 46.83212372 -125.94996643 46.82688904 C-127.71177945 46.81624517 -129.47360547 46.8076019 -131.23543739 46.80076981 C-134.0216275 46.78892068 -136.80766678 46.76945798 -139.59379578 46.74765015 C-147.51080361 46.68619745 -155.42778963 46.63182619 -163.3449707 46.59863281 C-168.19663898 46.57774886 -173.04802123 46.54251277 -177.8995266 46.49787521 C-179.74833005 46.48368234 -181.59718398 46.4749854 -183.4460392 46.47182083 C-186.02203263 46.46693989 -188.59725724 46.44386155 -191.1730957 46.41650391 C-191.94036987 46.41951004 -192.70764404 46.42251617 -193.49816895 46.4256134 C-195.61763 46.39199829 -195.61763 46.39199829 -199 46 C-200.99825961 43.00261059 -201.27550398 42.36652492 -201.25 39 C-201.25515625 38.319375 -201.2603125 37.63875 -201.265625 36.9375 C-201 35 -201 35 -199 32 C-197.03218365 31.6292057 -197.03218365 31.6292057 -194.57292175 31.63491821 C-193.64130722 31.62960587 -192.70969269 31.62429352 -191.74984741 31.61882019 C-190.21114487 31.63275566 -190.21114487 31.63275566 -188.64135742 31.64697266 C-187.56289047 31.64481247 -186.48442352 31.64265228 -185.37327576 31.64042664 C-183.0215419 31.63733055 -180.66979202 31.64097221 -178.31807518 31.65044022 C-174.57762095 31.66416468 -170.83769846 31.65774411 -167.09724426 31.64559937 C-156.45825248 31.6146471 -145.81941848 31.61931054 -135.18041992 31.63964844 C-128.67456194 31.65067194 -122.1690975 31.63713801 -115.66329384 31.60975266 C-113.19937694 31.60436464 -110.73541939 31.60823923 -108.27153587 31.62215042 C-71.32492962 31.8279919 -38.6167728 18.34813027 -6.203125 1.54296875 C-3 0 -3 0 0 0 Z " fill="#256628" transform="translate(738,25)"/>
<path d="M0 0 C3.91799043 2.35079426 7.15888524 4.65865792 10.6875 7.5 C37.76330986 28.72543724 61.52760933 32.5560511 95 29 C93.50731493 34.06752321 90.47353774 37.06625615 86.8125 40.6875 C86.19246094 41.30109375 85.57242188 41.9146875 84.93359375 42.546875 C69.79002441 57.11267763 50.19356842 66.85346269 29 68 C28.04867187 68.05285156 27.09734375 68.10570312 26.1171875 68.16015625 C16.72187945 68.42562564 9.68914766 66.81671519 0 65 C0 43.55 0 22.1 0 0 Z " fill="#81A43B" transform="translate(742,196)"/>
<path d="M0 0 C3.74210011 1.00397808 5.62727805 3.47378753 7.5625 6.6875 C8.1917057 10.19171238 8.1917057 10.19171238 8.19741821 14.13294983 C8.20521817 14.86142087 8.21301812 15.58989191 8.22105443 16.34043783 C8.2409274 18.77053001 8.22522998 21.19904786 8.20947266 23.62915039 C8.21625086 25.37560436 8.22515514 27.12205119 8.23602295 28.8684845 C8.25879713 33.6040297 8.24998821 38.33902964 8.23412752 43.07458425 C8.2214608 48.03170688 8.2332106 52.98878311 8.24105835 57.94590759 C8.2501518 66.269118 8.23817407 74.59210649 8.21435547 82.9152832 C8.18713586 92.5380404 8.19596565 102.16026805 8.2234875 111.78301245 C8.24617554 120.04645892 8.2493804 128.30974597 8.23629415 136.57321352 C8.22849912 141.50801967 8.22745968 146.44257686 8.24397659 151.37736702 C8.25841798 156.01591863 8.24840588 160.65378715 8.21950531 165.29226494 C8.21289308 166.99463135 8.21479456 168.69705524 8.22581863 170.3993988 C8.23948115 172.72338685 8.22235374 175.0451854 8.19741821 177.36903381 C8.19553308 178.66926515 8.19364796 179.96949648 8.1917057 181.30912876 C7.39948696 185.56275997 5.95421018 187.07874317 2.5625 189.6875 C-0.59694127 189.6875 -2.46759309 189.34073875 -5.0929575 187.57253838 C-7.17990696 184.64665108 -6.81862255 182.08407136 -6.82518005 178.52688599 C-6.83056559 177.79281112 -6.83595113 177.05873625 -6.84149987 176.30241668 C-6.85583953 173.83571932 -6.84866113 171.36955408 -6.84155273 168.90283203 C-6.84725324 167.13712124 -6.85421625 165.37141414 -6.86235046 163.60571289 C-6.88033396 158.80400218 -6.87910358 154.00247369 -6.87340808 149.20073938 C-6.87032323 145.19469755 -6.87640093 141.18869107 -6.88244683 137.18265426 C-6.89650794 127.73225407 -6.89491803 118.28194424 -6.88354492 108.83154297 C-6.87206612 99.07770879 -6.88613178 89.32414964 -6.9129414 79.57035172 C-6.93508597 71.20083588 -6.94173846 62.83140646 -6.93586498 54.4618634 C-6.93249074 49.46108219 -6.93494126 44.46047723 -6.95211601 39.45972061 C-6.96756292 34.75647844 -6.96365471 30.05364402 -6.94481087 25.35041809 C-6.9411185 23.62385512 -6.94425228 21.8972621 -6.95469666 20.17072678 C-6.9678648 17.81403934 -6.95639754 15.45871004 -6.93870544 13.1020813 C-6.93849616 11.78320482 -6.93828688 10.46432835 -6.93807125 9.10548592 C-6.2691842 4.538211 -4.62112399 1.30339395 0 0 Z " fill="#2B6526" transform="translate(748.4375,275.3125)"/>
<path d="M0 0 C4.10996304 2.05498152 6.32914704 3.74126779 8 8 C8.21443385 11.12303656 7.87310734 13.99385827 7 17 C3.32415016 20.7701024 0.42545027 22.16350977 -4.75 22.3125 C-9.59880729 22.25644442 -12.34886755 21.37729752 -16 18 C-17.91303463 14.9225095 -18.00253398 13.14190292 -17.9375 9.5 C-16.82276962 5.33833993 -15.28026327 3.72021832 -12 1 C-8.28986322 -0.85506839 -4.04907177 -0.45334699 0 0 Z " fill="#0092EC" transform="translate(513,53)"/>
<path d="M0 0 C3.03852194 0.68740332 4.86831726 2.01275181 6.6015625 4.625 C8.10341261 8.30453278 8.25783258 11.67616899 7.3828125 15.5390625 C4.85913225 19.20987014 3.21245367 20.29771234 -1.0546875 21.5390625 C-5.20674862 21.5390625 -7.19812627 20.87024061 -10.6171875 18.5390625 C-13.42325436 15.37092249 -13.6171875 13.81770056 -13.6171875 9.5390625 C-13.0671497 6.54504232 -12.395992 5.19656624 -10.6796875 2.5390625 C-6.92325436 0.08588167 -4.42752295 -0.25111324 0 0 Z " fill="#4F7B42" transform="translate(752.6171875,474.4609375)"/>
<path d="M0 0 C-1.3584202 3.04332765 -2.88463024 5.12309151 -5.2578125 7.453125 C-5.88300781 8.071875 -6.50820313 8.690625 -7.15234375 9.328125 C-7.80332031 9.96234375 -8.45429688 10.5965625 -9.125 11.25 C-9.78371094 11.8996875 -10.44242187 12.549375 -11.12109375 13.21875 C-12.74296643 14.81711727 -14.3693281 16.41061897 -16 18 C-16 13.95983547 -14.53130788 13.0433941 -11.8125 10.125 C-10.99265625 9.24328125 -10.1728125 8.3615625 -9.328125 7.453125 C-8.55984375 6.64359375 -7.7915625 5.8340625 -7 5 C-6.45859375 4.41734375 -5.9171875 3.8346875 -5.359375 3.234375 C-2.2737069 0 -2.2737069 0 0 0 Z " fill="#0389C2" transform="translate(279,160)"/>
</svg>
